<svg width="3395" height="649" viewBox="0 0 3395 649" fill="none" xmlns="http://www.w3.org/2000/svg">
<g clip-path="url(#clip0_1126_52)">
<path d="M111.719 441.828C124.219 441.828 132.292 438.312 135.938 431.281C139.583 424.25 145.117 420.734 152.539 420.734C156.576 420.734 159.896 422.232 162.5 425.227C165.234 428.091 166.602 431.542 166.602 435.578C166.602 447.167 159.635 456.346 145.703 463.117C131.771 469.888 118.229 473.273 105.078 473.273C89.8438 473.273 76.4974 467.935 65.0391 457.258C53.5807 446.451 47.8516 433.885 47.8516 419.562V281.281H18.5547C13.0859 281.281 9.04948 279.719 6.44531 276.594C3.84115 273.469 2.53906 269.432 2.53906 264.484C2.53906 259.667 3.71094 255.5 6.05469 251.984C8.52865 248.469 12.3047 246.711 17.3828 246.711H47.8516C47.8516 234.862 48.8932 219.042 50.9766 199.25C53.0599 179.458 59.7005 169.562 70.8984 169.562C74.1536 169.562 76.9531 169.953 79.2969 170.734C81.7708 171.516 84.1797 172.753 86.5234 174.445V178.352C86.5234 180.044 86.5885 181.997 86.7188 184.211C86.849 186.294 86.9141 188.182 86.9141 189.875V246.711H138.086C143.034 246.711 146.615 248.534 148.828 252.18C151.042 255.826 152.148 260.057 152.148 264.875C152.148 269.172 150.846 273.013 148.242 276.398C145.768 279.654 142.253 281.281 137.695 281.281H86.9141V413.508C86.9141 423.664 89.2578 430.956 93.9453 435.383C98.6328 439.68 104.557 441.828 111.719 441.828ZM290.625 263.117C290.625 267.935 289.518 272.167 287.305 275.812C285.091 279.458 281.51 281.281 276.562 281.281H253.125L321.094 427.18L375 281.281H352.344C347.396 281.281 343.815 279.458 341.602 275.812C339.388 272.167 338.281 267.935 338.281 263.117C338.281 258.82 339.518 255.044 341.992 251.789C344.596 248.404 348.177 246.711 352.734 246.711H431.445C437.044 246.711 441.081 248.273 443.555 251.398C446.159 254.523 447.461 258.56 447.461 263.508C447.461 268.326 446.224 272.492 443.75 276.008C441.406 279.523 437.695 281.281 432.617 281.281H409.766L328.711 491.633C321.68 508.169 312.174 527.57 300.195 549.836C288.346 572.102 270.117 583.234 245.508 583.234C237.695 583.234 231.576 581.086 227.148 576.789C222.852 572.492 220.703 567.74 220.703 562.531C220.703 557.714 222.331 552.766 225.586 547.688C228.971 542.609 234.831 540.005 243.164 539.875C254.102 539.875 263.542 535.904 271.484 527.961C279.427 520.018 285.547 510.839 289.844 500.422L302.344 469.172C301.693 469.172 300 466.568 297.266 461.359C294.661 456.021 293.099 452.766 292.578 451.594L208.984 281.281H185.352C180.273 281.281 176.562 279.523 174.219 276.008C171.875 272.492 170.703 268.326 170.703 263.508C170.703 258.56 172.005 254.523 174.609 251.398C177.214 248.273 181.25 246.711 186.719 246.711H276.172C280.729 246.711 284.245 248.404 286.719 251.789C289.323 255.044 290.625 258.82 290.625 263.117ZM675.781 354.328C675.781 331.281 669.987 311.359 658.398 294.562C646.94 277.635 629.948 269.172 607.422 269.172C590.234 269.172 575.391 272.427 562.891 278.938C550.521 285.448 540.43 293.781 532.617 303.938V412.727C540.82 420.93 551.042 427.505 563.281 432.453C575.651 437.271 589.974 439.68 606.25 439.68C629.036 439.68 646.289 431.216 658.008 414.289C669.857 397.232 675.781 377.245 675.781 354.328ZM718.945 354.328C718.945 388.964 708.724 417.414 688.281 439.68C667.839 461.815 640.495 472.883 606.25 472.883C590.234 472.883 576.237 470.474 564.258 465.656C552.409 460.839 541.862 454.523 532.617 446.711V545.93H572.07C577.018 545.93 580.599 547.753 582.812 551.398C585.026 555.044 586.133 559.276 586.133 564.094C586.133 568.391 584.831 572.167 582.227 575.422C579.753 578.677 576.237 580.305 571.68 580.305H469.336C463.867 580.305 459.831 578.742 457.227 575.617C454.622 572.492 453.32 568.456 453.32 563.508C453.32 558.69 454.492 554.523 456.836 551.008C459.31 547.622 463.086 545.93 468.164 545.93H492.578V276.789L464.648 283.625C464.388 283.755 463.997 283.885 463.477 284.016C462.956 284.016 462.37 284.016 461.719 284.016C457.812 284.016 454.167 282.453 450.781 279.328C447.396 276.073 445.703 272.427 445.703 268.391C445.703 263.964 446.68 260.448 448.633 257.844C450.586 255.109 453.385 253.156 457.031 251.984L511.328 236.359C511.849 236.359 512.174 236.294 512.305 236.164C512.435 236.034 512.76 235.969 513.281 235.969H514.648C517.383 235.969 519.727 236.815 521.68 238.508C523.633 240.07 524.609 242.284 524.609 245.148L528.516 282.062C534.766 268.781 545.182 257.779 559.766 249.055C574.349 240.331 591.146 235.969 610.156 235.969C644.271 235.969 670.898 247.167 690.039 269.562C709.31 291.828 718.945 320.083 718.945 354.328ZM788.086 358.82C788.086 384.341 796.029 403.807 811.914 417.219C827.93 430.5 847.591 437.141 870.898 437.141C887.435 437.141 900.391 434.081 909.766 427.961C919.271 421.711 928.32 414.615 936.914 406.672C938.867 404.979 940.951 403.742 943.164 402.961C945.378 402.049 947.591 401.594 949.805 401.594C955.013 401.594 959.44 403.221 963.086 406.477C966.732 409.602 968.555 413.833 968.555 419.172C968.555 435.839 956.445 448.99 932.227 458.625C908.138 468.13 887.174 472.883 869.336 472.883C833.659 472.883 804.232 462.336 781.055 441.242C758.008 420.018 746.484 391.503 746.484 355.695C746.484 320.279 757.096 291.503 778.32 269.367C799.544 247.102 828.32 235.969 864.648 235.969C890.69 235.969 914.453 245.018 935.938 263.117C957.422 281.086 968.164 304.328 968.164 332.844C968.164 342.609 965.104 348.469 958.984 350.422C952.995 352.375 945.378 353.807 936.133 354.719L788.086 358.82ZM919.141 320.344C919.141 301.724 913.411 288.573 901.953 280.891C890.625 273.078 878.19 269.172 864.648 269.172C841.732 269.172 823.503 274.836 809.961 286.164C796.549 297.492 788.997 312.531 787.305 331.281L904.688 328.742C908.333 328.612 911.654 327.961 914.648 326.789C917.643 325.487 919.141 323.339 919.141 320.344Z" fill="#A7CABB"/>
<path d="M1248.57 423.957C1290.47 423.957 1327.97 416.438 1361.1 401.398C1394.22 386.359 1410.78 357.624 1410.78 315.192V281.086H1369.96C1363.69 281.086 1358.86 278.848 1355.46 274.372C1352.06 269.717 1350.35 264.436 1350.35 258.527C1350.35 251.903 1351.79 246.174 1354.65 241.34C1357.69 236.327 1362.62 233.82 1369.42 233.82H1481.14C1487.94 233.82 1492.87 236.327 1495.91 241.34C1498.95 246.174 1500.48 251.903 1500.48 258.527C1500.48 264.436 1498.69 269.717 1495.11 274.372C1491.7 278.848 1486.87 281.086 1480.6 281.086H1458.04V448.664C1458.04 455.467 1455.54 460.391 1450.53 463.435C1445.69 466.478 1439.96 468 1433.34 468C1427.43 468 1422.15 466.299 1417.49 462.897C1413.02 459.317 1410.78 454.393 1410.78 448.127V415.095C1395.2 436.4 1373.27 451.708 1344.98 461.018C1316.87 470.148 1284.74 474.714 1248.57 474.714C1177.85 474.714 1120.02 453.319 1075.09 410.529C1030.15 367.561 1007.68 310.627 1007.68 239.729C1007.68 167.935 1030.77 110.196 1076.97 66.5107C1123.34 22.8258 1182.33 0.983398 1253.94 0.983398C1286.35 0.983398 1314.37 5.81738 1338 15.4854C1361.63 24.9743 1382.76 38.1335 1401.38 54.9629V27.0332C1401.38 20.2298 1403.8 15.3063 1408.63 12.2627C1413.64 9.21908 1419.46 7.69727 1426.09 7.69727C1432 7.69727 1437.19 9.48763 1441.66 13.0684C1446.32 16.4701 1448.65 21.304 1448.65 27.5703V128.01C1448.65 134.276 1446.32 139.2 1441.66 142.78C1437.19 146.182 1432 147.883 1426.09 147.883C1420 147.883 1415.43 145.555 1412.39 140.9C1409.35 136.066 1406.39 131.411 1403.53 126.936C1387.06 103.84 1366.74 85.5781 1342.57 72.1504C1318.58 58.5436 1289.03 51.7402 1253.94 51.7402C1198.98 51.7402 1155.92 69.3753 1124.77 104.646C1093.62 139.737 1078.04 184.764 1078.04 239.729C1078.04 293.977 1092.99 338.288 1122.89 372.663C1152.97 406.859 1194.86 423.957 1248.57 423.957ZM1881.56 422.883C1881.56 437.206 1872.07 449.47 1853.09 459.675C1834.11 469.701 1818.53 474.714 1806.36 474.714C1791.68 474.714 1779.86 471.133 1770.91 463.972C1761.96 456.81 1755.87 445.889 1752.65 431.208C1739.58 446.247 1722.48 457.437 1701.36 464.777C1680.23 471.939 1657.67 475.52 1633.68 475.52C1606.29 475.52 1583.37 467.194 1564.93 450.544C1546.67 433.894 1537.54 412.23 1537.54 385.554C1537.54 337.572 1560.99 308.21 1607.9 297.468C1654.81 286.726 1700.64 279.385 1745.4 275.446V231.94C1745.4 217.976 1739.4 208.308 1727.41 202.937C1715.41 197.386 1702.52 194.611 1688.73 194.611C1663.67 194.611 1644.6 197.297 1631.53 202.668C1618.64 208.039 1603.6 216.185 1586.41 227.106C1584.8 228.002 1583.19 228.718 1581.58 229.255C1580.15 229.792 1578.63 230.061 1577.01 230.061C1570.93 230.061 1565.47 227.196 1560.63 221.467C1555.8 215.738 1553.38 209.74 1553.38 203.474C1553.38 181.989 1569.05 167.577 1600.38 160.236C1631.89 152.717 1658.74 148.957 1680.95 148.957C1726.24 148.957 1757.21 158.625 1773.87 177.961C1790.52 197.118 1798.84 229.076 1798.84 273.835V409.187C1798.84 414.737 1799.74 419.392 1801.53 423.151C1803.5 426.732 1806.54 428.522 1810.66 428.522C1818.71 428.522 1827.76 423.688 1837.78 414.021C1847.81 404.353 1856.04 399.519 1862.49 399.519C1866.43 399.519 1870.54 402.204 1874.84 407.575C1879.32 412.767 1881.56 417.87 1881.56 422.883ZM1745.4 315.729C1717.11 318.773 1684.97 323.428 1648.99 329.694C1613.18 335.782 1595.28 353.864 1595.28 383.942C1595.28 399.16 1600.92 410.529 1612.2 418.049C1623.47 425.389 1636.9 429.06 1652.48 429.06C1671.1 429.06 1688.11 425.658 1703.5 418.854C1719.08 411.872 1733.04 403.547 1745.4 393.879V315.729ZM2016.37 2.05762C2020.13 2.05762 2023.44 3.31087 2026.31 5.81738C2029.17 8.14486 2030.6 11.278 2030.6 15.2168V420.734H2096.13C2102.93 420.734 2107.86 423.241 2110.9 428.254C2113.94 433.088 2115.47 438.817 2115.47 445.441C2115.47 451.35 2113.68 456.631 2110.1 461.286C2106.69 465.762 2101.86 468 2095.59 468H1916.2C1908.68 468 1903.13 465.852 1899.55 461.555C1895.97 457.258 1894.18 451.708 1894.18 444.904C1894.18 438.28 1895.79 432.64 1899.01 427.985C1902.41 423.151 1907.61 420.734 1914.59 420.734H1975.55V59.7969L1912.44 76.4473C1911.72 76.4473 1911.28 76.5368 1911.1 76.7158C1910.92 76.8949 1910.47 76.9844 1909.75 76.9844C1904.2 76.9844 1899.19 74.5674 1894.71 69.7334C1890.42 64.7204 1888.27 59.4388 1888.27 53.8887C1888.27 46.1901 1890.24 41.1771 1894.18 38.8496C1898.3 36.3431 1903.31 34.1947 1909.22 32.4043L2012.61 2.59473C2012.97 2.41569 2013.42 2.32617 2013.95 2.32617C2014.67 2.14714 2015.47 2.05762 2016.37 2.05762ZM2261.83 2.05762C2265.59 2.05762 2268.9 3.31087 2271.77 5.81738C2274.63 8.14486 2276.06 11.278 2276.06 15.2168V420.734H2341.59C2348.39 420.734 2353.32 423.241 2356.36 428.254C2359.4 433.088 2360.93 438.817 2360.93 445.441C2360.93 451.35 2359.14 456.631 2355.55 461.286C2352.15 465.762 2347.32 468 2341.05 468H2161.66C2154.14 468 2148.59 465.852 2145.01 461.555C2141.43 457.258 2139.64 451.708 2139.64 444.904C2139.64 438.28 2141.25 432.64 2144.47 427.985C2147.87 423.151 2153.06 420.734 2160.05 420.734H2221.01V59.7969L2157.9 76.4473C2157.18 76.4473 2156.73 76.5368 2156.56 76.7158C2156.38 76.8949 2155.93 76.9844 2155.21 76.9844C2149.66 76.9844 2144.65 74.5674 2140.17 69.7334C2135.88 64.7204 2133.73 59.4388 2133.73 53.8887C2133.73 46.1901 2135.7 41.1771 2139.64 38.8496C2143.75 36.3431 2148.77 34.1947 2154.68 32.4043L2258.07 2.59473C2258.43 2.41569 2258.88 2.32617 2259.41 2.32617C2260.13 2.14714 2260.93 2.05762 2261.83 2.05762ZM2444.45 317.878C2444.45 352.969 2455.37 379.735 2477.21 398.176C2499.23 416.438 2526.27 425.568 2558.31 425.568C2581.05 425.568 2598.87 421.361 2611.76 412.946C2624.83 404.353 2637.27 394.595 2649.08 383.674C2651.77 381.346 2654.64 379.646 2657.68 378.571C2660.72 377.318 2663.77 376.691 2666.81 376.691C2673.97 376.691 2680.06 378.929 2685.07 383.405C2690.08 387.702 2692.59 393.521 2692.59 400.861C2692.59 423.778 2675.94 441.861 2642.64 455.109C2609.52 468.179 2580.69 474.714 2556.17 474.714C2507.11 474.714 2466.65 460.212 2434.78 431.208C2403.09 402.025 2387.24 362.816 2387.24 313.581C2387.24 264.883 2401.84 225.316 2431.02 194.88C2460.2 164.265 2499.77 148.957 2549.72 148.957C2585.53 148.957 2618.2 161.4 2647.74 186.286C2677.28 210.993 2692.05 242.951 2692.05 282.16C2692.05 295.588 2687.85 303.645 2679.43 306.33C2671.2 309.016 2660.72 310.985 2648.01 312.238L2444.45 317.878ZM2624.65 264.973C2624.65 239.37 2616.77 221.288 2601.01 210.725C2585.44 199.982 2568.34 194.611 2549.72 194.611C2518.21 194.611 2493.14 202.399 2474.52 217.976C2456.08 233.552 2445.7 254.23 2443.37 280.012L2604.77 276.521C2609.79 276.341 2614.35 275.446 2618.47 273.835C2622.59 272.045 2624.65 269.09 2624.65 264.973ZM2956.04 197.834C2934.56 197.834 2915.4 202.578 2898.57 212.067C2881.74 221.556 2868.94 232.836 2860.17 245.905V420.734H2932.14C2938.94 420.734 2943.87 423.241 2946.91 428.254C2949.96 433.088 2951.48 438.817 2951.48 445.441C2951.48 451.35 2949.69 456.631 2946.11 461.286C2942.7 465.762 2937.87 468 2931.6 468H2754.09C2746.57 468 2741.02 465.852 2737.44 461.555C2733.86 457.258 2732.07 451.708 2732.07 444.904C2732.07 438.28 2733.68 432.64 2736.9 427.985C2740.3 423.151 2745.5 420.734 2752.48 420.734H2805.12V205.085L2766.71 214.484C2766.35 214.663 2765.82 214.842 2765.1 215.021C2764.56 215.021 2763.85 215.021 2762.95 215.021C2757.58 215.021 2752.57 212.873 2747.91 208.576C2743.26 204.1 2740.93 199.087 2740.93 193.537C2740.93 187.45 2742.18 182.616 2744.69 179.035C2747.38 175.275 2751.23 172.59 2756.24 170.979L2831.17 149.494C2831.88 149.494 2832.33 149.405 2832.51 149.226C2832.69 149.047 2833.13 148.957 2833.85 148.957H2835.46C2839.22 148.957 2842.44 150.121 2845.13 152.448C2847.82 154.597 2849.16 157.64 2849.16 161.579L2854.8 212.336C2867.15 193.537 2883.35 178.319 2903.41 166.682C2923.64 154.865 2949.42 148.957 2980.75 148.957C2986.66 148.957 2991.85 150.747 2996.33 154.328C3000.98 157.73 3003.31 162.564 3003.31 168.83V226.032C3003.31 233.552 3001.16 239.102 2996.86 242.683C2992.57 246.263 2987.02 248.054 2980.21 248.054C2973.59 248.054 2967.86 246.442 2963.03 243.22C2958.37 239.818 2956.04 234.626 2956.04 227.644V197.834ZM3178.41 186.286C3178.41 192.91 3176.88 198.729 3173.84 203.742C3170.8 208.755 3165.87 211.262 3159.07 211.262H3126.84L3220.3 411.872L3294.42 211.262H3263.27C3256.47 211.262 3251.54 208.755 3248.5 203.742C3245.46 198.729 3243.93 192.91 3243.93 186.286C3243.93 180.378 3245.63 175.186 3249.04 170.71C3252.62 166.055 3257.54 163.728 3263.81 163.728H3372.03C3379.73 163.728 3385.28 165.876 3388.68 170.173C3392.27 174.47 3394.06 180.02 3394.06 186.823C3394.06 193.448 3392.35 199.177 3388.95 204.011C3385.73 208.845 3380.63 211.262 3373.65 211.262H3342.22L3230.77 500.495C3221.11 523.233 3208.04 549.909 3191.57 580.524C3175.27 611.14 3150.21 626.447 3116.37 626.447C3105.63 626.447 3097.21 623.493 3091.13 617.585C3085.22 611.677 3082.26 605.142 3082.26 597.98C3082.26 591.356 3084.5 584.553 3088.98 577.57C3093.63 570.588 3101.69 567.007 3113.15 566.828C3128.19 566.828 3141.17 561.368 3152.09 550.446C3163.01 539.525 3171.42 526.903 3177.33 512.58L3194.52 469.611C3193.62 469.611 3191.3 466.031 3187.54 458.869C3183.96 451.529 3181.81 447.053 3181.09 445.441L3066.15 211.262H3033.66C3026.67 211.262 3021.57 208.845 3018.35 204.011C3015.12 199.177 3013.51 193.448 3013.51 186.823C3013.51 180.02 3015.3 174.47 3018.88 170.173C3022.47 165.876 3028.02 163.728 3035.54 163.728H3158.53C3164.8 163.728 3169.63 166.055 3173.04 170.71C3176.62 175.186 3178.41 180.378 3178.41 186.286Z" fill="white"/>
</g>
<defs>
<clipPath id="clip0_1126_52">
<rect width="3395" height="649" fill="white"/>
</clipPath>
</defs>
</svg>
